G04 ================== begin FILE IDENTIFICATION RECORD ==================*
G04 Layout Name:  D:/Projects/PCB/Pressure Sensor/PCBEditor/V1/PressureSensorV1.brd*
G04 Film Name:    7_SILKSCREEN_BOTTOM*
G04 File Format:  Gerber RS274X*
G04 File Origin:  Cadence Allegro 23.1-S004*
G04 Origin Date:  Sun Jul 14 20:04:23 2024*
G04 *
G04 Layer:  REF DES/SILKSCREEN_BOTTOM*
G04 Layer:  PACKAGE GEOMETRY/SILKSCREEN_BOTTOM*
G04 Layer:  DRAWING FORMAT/TITLE_DATA*
G04 Layer:  DRAWING FORMAT/TITLE_BLOCK*
G04 Layer:  DRAWING FORMAT/REVISION_DATA*
G04 Layer:  DRAWING FORMAT/REVISION_BLOCK*
G04 Layer:  DRAWING FORMAT/OUTLINE*
G04 Layer:  DRAWING FORMAT/DRAWING_ORIGIN*
G04 Layer:  COMPONENT VALUE/SILKSCREEN_BOTTOM*
G04 Layer:  BOARD GEOMETRY/SILKSCREEN_BOTTOM*
G04 Layer:  BOARD GEOMETRY/DESIGN_OUTLINE*
G04 *
G04 Offset:    (0.0000 0.0000)*
G04 Mirror:    No*
G04 Mode:      Positive*
G04 Rotation:  0*
G04 FullContactRelief:  No*
G04 UndefLineWidth:     0.1000*
G04 ================== end FILE IDENTIFICATION RECORD ====================*
%FSLAX25Y25*MOMM*%
%IR0*IPPOS*OFA0.00000B0.00000*MIA0B0*SFA1.00000B1.00000*%
%AMMACRO10*
1,1,.1,.2,0.0*
20,1,.1,.2,0.0,-.2,0.0,0.0*
1,1,.1,-.2,0.0*
1,1,.1,0.0,.2*
20,1,.1,0.0,.2,0.0,-.2,0.0*
1,1,.1,0.0,-.2*
%
%ADD10MACRO10*%
%ADD11C,.1*%
G75*
%LPD*%
G75*
G54D10*
X0Y0D03*
G54D11*
G01X3014630Y2272950D02*
Y2253470D01*
X3038250D01*
X3046130Y2259320D01*
X3051380Y2266130D01*
X3054000Y2275870D01*
X3051380Y2285610D01*
X3046130Y2292420D01*
X3038250Y2298260D01*
X3029070Y2302160D01*
X3018570Y2304110D01*
X3009380D01*
X3001510Y2302160D01*
X2992320Y2298260D01*
X2984450Y2292420D01*
X2979200Y2286580D01*
X2975260Y2278790D01*
Y2271970D01*
X2977880Y2264190D01*
X2983130Y2258340D01*
G01X3054000Y2222440D02*
X2975260D01*
X3054000Y2177660D01*
X2975260D01*
G01X3054000Y2142730D02*
X2975260D01*
Y2123260D01*
X2979200Y2115470D01*
X2984450Y2109630D01*
X2992320Y2104760D01*
X3001510Y2100860D01*
X3014630Y2099890D01*
X3027750Y2100860D01*
X3036940Y2104760D01*
X3044820Y2109630D01*
X3050060Y2115470D01*
X3054000Y2123260D01*
Y2142730D01*
G01X3034630Y3582950D02*
Y3563470D01*
X3058250D01*
X3066130Y3569320D01*
X3071380Y3576130D01*
X3074000Y3585870D01*
X3071380Y3595610D01*
X3066130Y3602420D01*
X3058250Y3608260D01*
X3049070Y3612160D01*
X3038570Y3614110D01*
X3029380D01*
X3021510Y3612160D01*
X3012320Y3608260D01*
X3004450Y3602420D01*
X2999200Y3596580D01*
X2995260Y3588790D01*
Y3581970D01*
X2997880Y3574190D01*
X3003130Y3568340D01*
G01X3074000Y3532440D02*
X2995260D01*
X3074000Y3487660D01*
X2995260D01*
G01X3074000Y3452730D02*
X2995260D01*
Y3433260D01*
X2999200Y3425470D01*
X3004450Y3419630D01*
X3012320Y3414760D01*
X3021510Y3410860D01*
X3034630Y3409890D01*
X3047750Y3410860D01*
X3056940Y3414760D01*
X3064820Y3419630D01*
X3070060Y3425470D01*
X3074000Y3433260D01*
Y3452730D01*
G01X4304630Y2282950D02*
Y2263470D01*
X4328250D01*
X4336130Y2269320D01*
X4341380Y2276130D01*
X4344000Y2285870D01*
X4341380Y2295610D01*
X4336130Y2302420D01*
X4328250Y2308260D01*
X4319070Y2312160D01*
X4308570Y2314110D01*
X4299380D01*
X4291510Y2312160D01*
X4282320Y2308260D01*
X4274450Y2302420D01*
X4269200Y2296580D01*
X4265260Y2288790D01*
Y2281970D01*
X4267880Y2274190D01*
X4273130Y2268340D01*
G01X4344000Y2232440D02*
X4265260D01*
X4344000Y2187660D01*
X4265260D01*
G01X4344000Y2152730D02*
X4265260D01*
Y2133260D01*
X4269200Y2125470D01*
X4274450Y2119630D01*
X4282320Y2114760D01*
X4291510Y2110860D01*
X4304630Y2109890D01*
X4317750Y2110860D01*
X4326940Y2114760D01*
X4334820Y2119630D01*
X4340060Y2125470D01*
X4344000Y2133260D01*
Y2152730D01*
G01X4284630Y3572950D02*
Y3553470D01*
X4308250D01*
X4316130Y3559320D01*
X4321380Y3566130D01*
X4324000Y3575870D01*
X4321380Y3585610D01*
X4316130Y3592420D01*
X4308250Y3598260D01*
X4299070Y3602160D01*
X4288570Y3604110D01*
X4279380D01*
X4271510Y3602160D01*
X4262320Y3598260D01*
X4254450Y3592420D01*
X4249200Y3586580D01*
X4245260Y3578790D01*
Y3571970D01*
X4247880Y3564190D01*
X4253130Y3558340D01*
G01X4324000Y3522440D02*
X4245260D01*
X4324000Y3477660D01*
X4245260D01*
G01X4324000Y3442730D02*
X4245260D01*
Y3423260D01*
X4249200Y3415470D01*
X4254450Y3409630D01*
X4262320Y3404760D01*
X4271510Y3400860D01*
X4284630Y3399890D01*
X4297750Y3400860D01*
X4306940Y3404760D01*
X4314820Y3409630D01*
X4320060Y3415470D01*
X4324000Y3423260D01*
Y3442730D01*
G01X4818680Y470000D02*
X4779740D01*
Y391260D01*
X4818680D01*
G01X4803100Y429320D02*
X4779740D01*
G01X4855560Y470000D02*
Y391260D01*
X4900340Y470000D01*
Y391260D01*
G01X4764870Y631260D02*
X4789210Y710000D01*
X4813550Y631260D01*
G01X4856270D02*
X4879630D01*
G01X4867950D02*
Y710000D01*
G01X4856270D02*
X4879630D01*
G01X4924300D02*
Y631260D01*
X4969080Y710000D01*
Y631260D01*
G01X4757790Y958190D02*
X4763630Y964750D01*
X4770450Y968690D01*
X4779210Y970000D01*
X4787970Y967380D01*
X4794790Y962130D01*
X4799660Y952940D01*
X4800630Y942440D01*
X4798680Y931940D01*
X4793810Y925380D01*
X4787000Y920130D01*
X4780180Y918820D01*
X4773370Y920130D01*
X4764610Y925380D01*
X4767530Y891260D01*
X4793810D01*
G01X4833610D02*
X4857950Y970000D01*
X4882290Y891260D01*
G01X4775050Y1170630D02*
X4794530D01*
Y1194250D01*
X4788680Y1202130D01*
X4781870Y1207380D01*
X4772130Y1210000D01*
X4762390Y1207380D01*
X4755580Y1202130D01*
X4749740Y1194250D01*
X4745840Y1185070D01*
X4743890Y1174570D01*
Y1165380D01*
X4745840Y1157510D01*
X4749740Y1148320D01*
X4755580Y1140450D01*
X4761420Y1135200D01*
X4769210Y1131260D01*
X4776030D01*
X4783810Y1133880D01*
X4789660Y1139130D01*
G01X4825560Y1210000D02*
Y1131260D01*
X4870340Y1210000D01*
Y1131260D01*
G01X4905270Y1210000D02*
Y1131260D01*
X4924740D01*
X4932530Y1135200D01*
X4938370Y1140450D01*
X4943240Y1148320D01*
X4947140Y1157510D01*
X4948110Y1170630D01*
X4947140Y1183750D01*
X4943240Y1192940D01*
X4938370Y1200820D01*
X4932530Y1206060D01*
X4924740Y1210000D01*
X4905270D01*
G01X5344000Y2393130D02*
X5265260Y2368790D01*
X5344000Y2344450D01*
G01X5316440Y2353210D02*
Y2384370D01*
G01X5344000Y2311470D02*
X5265260D01*
Y2292000D01*
X5269200Y2284210D01*
X5274450Y2278370D01*
X5282320Y2273500D01*
X5291510Y2269600D01*
X5304630Y2268630D01*
X5317750Y2269600D01*
X5326940Y2273500D01*
X5334820Y2278370D01*
X5340060Y2284210D01*
X5344000Y2292000D01*
Y2311470D01*
G01X5271820Y2189890D02*
X5267880Y2195730D01*
X5265260Y2202550D01*
Y2210340D01*
X5269200Y2219100D01*
X5275760Y2225910D01*
X5283630Y2230780D01*
X5296760Y2234680D01*
X5308570Y2235650D01*
X5320380Y2233700D01*
X5328250Y2230780D01*
X5336130Y2224940D01*
X5341380Y2218130D01*
X5344000Y2211310D01*
Y2204490D01*
X5341380Y2197680D01*
X5337440Y2191840D01*
X5332190Y2186970D01*
G01X5344000Y2132570D02*
X5265260D01*
X5281010Y2144250D01*
G01X5344000D02*
Y2120890D01*
G01X5554630Y2292950D02*
Y2273470D01*
X5578250D01*
X5586130Y2279320D01*
X5591380Y2286130D01*
X5594000Y2295870D01*
X5591380Y2305610D01*
X5586130Y2312420D01*
X5578250Y2318260D01*
X5569070Y2322160D01*
X5558570Y2324110D01*
X5549380D01*
X5541510Y2322160D01*
X5532320Y2318260D01*
X5524450Y2312420D01*
X5519200Y2306580D01*
X5515260Y2298790D01*
Y2291970D01*
X5517880Y2284190D01*
X5523130Y2278340D01*
G01X5594000Y2242440D02*
X5515260D01*
X5594000Y2197660D01*
X5515260D01*
G01X5594000Y2162730D02*
X5515260D01*
Y2143260D01*
X5519200Y2135470D01*
X5524450Y2129630D01*
X5532320Y2124760D01*
X5541510Y2120860D01*
X5554630Y2119890D01*
X5567750Y2120860D01*
X5576940Y2124760D01*
X5584820Y2129630D01*
X5590060Y2135470D01*
X5594000Y2143260D01*
Y2162730D01*
G01X5554630Y3592950D02*
Y3573470D01*
X5578250D01*
X5586130Y3579320D01*
X5591380Y3586130D01*
X5594000Y3595870D01*
X5591380Y3605610D01*
X5586130Y3612420D01*
X5578250Y3618260D01*
X5569070Y3622160D01*
X5558570Y3624110D01*
X5549380D01*
X5541510Y3622160D01*
X5532320Y3618260D01*
X5524450Y3612420D01*
X5519200Y3606580D01*
X5515260Y3598790D01*
Y3591970D01*
X5517880Y3584190D01*
X5523130Y3578340D01*
G01X5594000Y3542440D02*
X5515260D01*
X5594000Y3497660D01*
X5515260D01*
G01X5594000Y3462730D02*
X5515260D01*
Y3443260D01*
X5519200Y3435470D01*
X5524450Y3429630D01*
X5532320Y3424760D01*
X5541510Y3420860D01*
X5554630Y3419890D01*
X5567750Y3420860D01*
X5576940Y3424760D01*
X5584820Y3429630D01*
X5590060Y3435470D01*
X5594000Y3443260D01*
Y3462730D01*
G01X6824630Y2292950D02*
Y2273470D01*
X6848250D01*
X6856130Y2279320D01*
X6861380Y2286130D01*
X6864000Y2295870D01*
X6861380Y2305610D01*
X6856130Y2312420D01*
X6848250Y2318260D01*
X6839070Y2322160D01*
X6828570Y2324110D01*
X6819380D01*
X6811510Y2322160D01*
X6802320Y2318260D01*
X6794450Y2312420D01*
X6789200Y2306580D01*
X6785260Y2298790D01*
Y2291970D01*
X6787880Y2284190D01*
X6793130Y2278340D01*
G01X6864000Y2242440D02*
X6785260D01*
X6864000Y2197660D01*
X6785260D01*
G01X6864000Y2162730D02*
X6785260D01*
Y2143260D01*
X6789200Y2135470D01*
X6794450Y2129630D01*
X6802320Y2124760D01*
X6811510Y2120860D01*
X6824630Y2119890D01*
X6837750Y2120860D01*
X6846940Y2124760D01*
X6854820Y2129630D01*
X6860060Y2135470D01*
X6864000Y2143260D01*
Y2162730D01*
G01X6598250Y2710210D02*
X6607440Y2704370D01*
X6612690Y2696580D01*
X6614000Y2687820D01*
X6612690Y2680030D01*
X6606130Y2672240D01*
X6598250Y2667370D01*
X6590380Y2666400D01*
X6581190Y2668340D01*
X6574630Y2675160D01*
X6572000Y2681970D01*
Y2690740D01*
G01Y2681970D02*
X6568070Y2676130D01*
X6561510Y2671260D01*
X6553630Y2669320D01*
X6545760Y2671260D01*
X6539200Y2676130D01*
X6535260Y2684900D01*
X6536570Y2693660D01*
X6541820Y2702420D01*
G01X6535260Y2634390D02*
X6614000Y2610050D01*
X6535260Y2585710D01*
G01X6598250Y2552730D02*
X6607440Y2546890D01*
X6612690Y2539100D01*
X6614000Y2530340D01*
X6612690Y2522550D01*
X6606130Y2514760D01*
X6598250Y2509890D01*
X6590380Y2508920D01*
X6581190Y2510860D01*
X6574630Y2517680D01*
X6572000Y2524490D01*
Y2533260D01*
G01Y2524490D02*
X6568070Y2518650D01*
X6561510Y2513780D01*
X6553630Y2511840D01*
X6545760Y2513780D01*
X6539200Y2518650D01*
X6535260Y2527420D01*
X6536570Y2536180D01*
X6541820Y2544940D01*
G01X6640250Y2457440D02*
X6627120Y2467170D01*
X6614000Y2472040D01*
X6561510D01*
X6548380Y2467170D01*
X6535260Y2457440D01*
G01X6614000Y2373830D02*
X6612690Y2381620D01*
X6607440Y2388430D01*
X6599570Y2394280D01*
X6590380Y2398170D01*
X6579880Y2400120D01*
X6569380D01*
X6558880Y2398170D01*
X6549690Y2394280D01*
X6541820Y2388430D01*
X6536570Y2381620D01*
X6535260Y2373830D01*
X6536570Y2366040D01*
X6541820Y2359230D01*
X6549690Y2353380D01*
X6558880Y2349490D01*
X6569380Y2347540D01*
X6579880D01*
X6590380Y2349490D01*
X6599570Y2353380D01*
X6607440Y2359230D01*
X6612690Y2366040D01*
X6614000Y2373830D01*
G01X6535260Y2316510D02*
X6591690D01*
X6603500Y2312620D01*
X6611380Y2304830D01*
X6614000Y2295090D01*
X6611380Y2285350D01*
X6603500Y2277560D01*
X6591690Y2273670D01*
X6535260D01*
G01Y2216350D02*
X6614000D01*
G01X6535260Y2238740D02*
Y2193960D01*
G01X6640250Y2132740D02*
X6627120Y2123010D01*
X6614000Y2118140D01*
X6561510D01*
X6548380Y2123010D01*
X6535260Y2132740D01*
G01X6834630Y3592950D02*
Y3573470D01*
X6858250D01*
X6866130Y3579320D01*
X6871380Y3586130D01*
X6874000Y3595870D01*
X6871380Y3605610D01*
X6866130Y3612420D01*
X6858250Y3618260D01*
X6849070Y3622160D01*
X6838570Y3624110D01*
X6829380D01*
X6821510Y3622160D01*
X6812320Y3618260D01*
X6804450Y3612420D01*
X6799200Y3606580D01*
X6795260Y3598790D01*
Y3591970D01*
X6797880Y3584190D01*
X6803130Y3578340D01*
G01X6874000Y3542440D02*
X6795260D01*
X6874000Y3497660D01*
X6795260D01*
G01X6874000Y3462730D02*
X6795260D01*
Y3443260D01*
X6799200Y3435470D01*
X6804450Y3429630D01*
X6812320Y3424760D01*
X6821510Y3420860D01*
X6834630Y3419890D01*
X6847750Y3420860D01*
X6856940Y3424760D01*
X6864820Y3429630D01*
X6870060Y3435470D01*
X6874000Y3443260D01*
Y3462730D01*
G01X7025260Y2393130D02*
X7104000Y2368790D01*
X7025260Y2344450D01*
G01X7093500Y2310500D02*
X7100060Y2302710D01*
X7104000Y2293940D01*
Y2286160D01*
X7100060Y2278370D01*
X7093500Y2272520D01*
X7084310Y2269600D01*
X7075130Y2271550D01*
X7067260Y2276420D01*
X7062000Y2285180D01*
X7059380Y2296870D01*
X7054130Y2303680D01*
X7044950Y2306600D01*
X7035760Y2304650D01*
X7029200Y2299790D01*
X7025260Y2292970D01*
Y2286160D01*
X7027880Y2279340D01*
X7034450Y2273500D01*
G01X7104000Y2211310D02*
X7068570D01*
X7025260Y2230780D01*
G01Y2191840D02*
X7068570Y2211310D01*
G01X7093500Y2153020D02*
X7100060Y2145230D01*
X7104000Y2136460D01*
Y2128680D01*
X7100060Y2120890D01*
X7093500Y2115040D01*
X7084310Y2112120D01*
X7075130Y2114070D01*
X7067260Y2118940D01*
X7062000Y2127700D01*
X7059380Y2139390D01*
X7054130Y2146200D01*
X7044950Y2149120D01*
X7035760Y2147170D01*
X7029200Y2142310D01*
X7025260Y2135490D01*
Y2128680D01*
X7027880Y2121860D01*
X7034450Y2116020D01*
G01X7295260Y2403130D02*
X7374000Y2378790D01*
X7295260Y2354450D01*
G01X7332000Y2292260D02*
X7328070Y2288370D01*
X7321510Y2285450D01*
X7312320Y2283500D01*
X7304450Y2285450D01*
X7299200Y2289340D01*
X7295260Y2296160D01*
Y2322440D01*
X7374000D01*
Y2290310D01*
X7368750Y2283500D01*
X7360880Y2279600D01*
X7351690Y2277660D01*
X7342510Y2279600D01*
X7334630Y2285450D01*
X7332000Y2292260D01*
Y2322440D01*
G01X7295260Y2242730D02*
X7351690D01*
X7363500Y2238840D01*
X7371380Y2231050D01*
X7374000Y2221310D01*
X7371380Y2211570D01*
X7363500Y2203780D01*
X7351690Y2199890D01*
X7295260D01*
G01X7363500Y2163020D02*
X7370060Y2155230D01*
X7374000Y2146460D01*
Y2138680D01*
X7370060Y2130890D01*
X7363500Y2125040D01*
X7354310Y2122120D01*
X7345130Y2124070D01*
X7337260Y2128940D01*
X7332000Y2137700D01*
X7329380Y2149390D01*
X7324130Y2156200D01*
X7314950Y2159120D01*
X7305760Y2157170D01*
X7299200Y2152310D01*
X7295260Y2145490D01*
Y2138680D01*
X7297880Y2131860D01*
X7304450Y2126020D01*
G01X7475260Y3050210D02*
X7531690D01*
X7543500Y3046320D01*
X7551380Y3038530D01*
X7554000Y3028790D01*
X7551380Y3019050D01*
X7543500Y3011260D01*
X7531690Y3007370D01*
X7475260D01*
G01X7543500Y2970500D02*
X7550060Y2962710D01*
X7554000Y2953940D01*
Y2946160D01*
X7550060Y2938370D01*
X7543500Y2932520D01*
X7534310Y2929600D01*
X7525130Y2931550D01*
X7517260Y2936420D01*
X7512000Y2945180D01*
X7509380Y2956870D01*
X7504130Y2963680D01*
X7494950Y2966600D01*
X7485760Y2964650D01*
X7479200Y2959790D01*
X7475260Y2952970D01*
Y2946160D01*
X7477880Y2939340D01*
X7484450Y2933500D01*
G01X7512000Y2863520D02*
X7508070Y2859630D01*
X7501510Y2856710D01*
X7492320Y2854760D01*
X7484450Y2856710D01*
X7479200Y2860600D01*
X7475260Y2867420D01*
Y2893700D01*
X7554000D01*
Y2861570D01*
X7548750Y2854760D01*
X7540880Y2850860D01*
X7531690Y2848920D01*
X7522510Y2850860D01*
X7514630Y2856710D01*
X7512000Y2863520D01*
Y2893700D01*
G01X7527750Y2805230D02*
Y2779910D01*
G01X7481820Y2692410D02*
X7477880Y2698250D01*
X7475260Y2705070D01*
Y2712860D01*
X7479200Y2721620D01*
X7485760Y2728430D01*
X7493630Y2733300D01*
X7506760Y2737200D01*
X7518570Y2738170D01*
X7530380Y2736220D01*
X7538250Y2733300D01*
X7546130Y2727460D01*
X7551380Y2720650D01*
X7554000Y2713830D01*
Y2707010D01*
X7551380Y2700200D01*
X7547440Y2694360D01*
X7542190Y2689490D01*
G01X-6365400Y-10600800D02*
Y18075800D01*
X14259400D01*
Y-10600800D01*
X-6365400D01*
G01X-5984400Y-9762600D02*
Y17364600D01*
X13802200D01*
Y-9762600D01*
X-5984400D01*
G01X0Y0D02*
Y4200000D01*
X7900000D01*
Y0D01*
X0D01*
G01X1089500Y14977000D02*
Y14215000D01*
G01Y17263000D02*
Y14977000D01*
G01X1248250Y15993000D02*
Y16247000D01*
X1327620D01*
X1353020Y16234290D01*
X1368900Y16217370D01*
X1375250Y16183500D01*
X1368900Y16149630D01*
X1349850Y16128470D01*
X1327620Y16115760D01*
X1248250D01*
G01X1327620D02*
X1375250Y15993000D01*
G01X1629250D02*
X1502250D01*
Y16247000D01*
X1629250D01*
G01X1578450Y16124240D02*
X1502250D01*
G01X1740370Y16247000D02*
X1819750Y15993000D01*
X1899130Y16247000D01*
G01X1089500Y15739000D02*
X13789500D01*
G01X1089500Y16501000D02*
X13789500D01*
G01X2105500Y14977000D02*
Y14215000D01*
G01Y14977000D02*
Y16501000D01*
G01X3185000Y-5152500D02*
Y-9724500D01*
G01X9535000Y-8962500D02*
X3185000D01*
G01X13853000Y-7946500D02*
X3185000D01*
G01X13853000Y-6422500D02*
X3185000D01*
G01Y-5152500D02*
X13801920D01*
X13802200Y-5152220D01*
G01X3340570Y-9309640D02*
X3365980Y-9330800D01*
X3394550Y-9343500D01*
X3419950D01*
X3445350Y-9330800D01*
X3464400Y-9309640D01*
X3473930Y-9280000D01*
X3467580Y-9250370D01*
X3451700Y-9224970D01*
X3423120Y-9208030D01*
X3385030Y-9199570D01*
X3362800Y-9182640D01*
X3353270Y-9153000D01*
X3359630Y-9123370D01*
X3375500Y-9102210D01*
X3397720Y-9089500D01*
X3419950D01*
X3442180Y-9097960D01*
X3461230Y-9119130D01*
G01X3731100Y-9110670D02*
X3712050Y-9097960D01*
X3689830Y-9089500D01*
X3664430D01*
X3635850Y-9102210D01*
X3613630Y-9123370D01*
X3597750Y-9148770D01*
X3585050Y-9191100D01*
X3581870Y-9229200D01*
X3588230Y-9267300D01*
X3597750Y-9292700D01*
X3616800Y-9318110D01*
X3639030Y-9335040D01*
X3661250Y-9343500D01*
X3683470D01*
X3705700Y-9335040D01*
X3724750Y-9322340D01*
X3740630Y-9305410D01*
G01X3835870Y-9343500D02*
X3915250Y-9089500D01*
X3994630Y-9343500D01*
G01X3966050Y-9254600D02*
X3864450D01*
G01X4105750Y-9089500D02*
Y-9343500D01*
X4232750D01*
G01X4486750D02*
X4359750D01*
Y-9089500D01*
X4486750D01*
G01X4435950Y-9212260D02*
X4359750D01*
G01X3340570Y-8293640D02*
X3365980Y-8314800D01*
X3394550Y-8327500D01*
X3419950D01*
X3445350Y-8314800D01*
X3464400Y-8293640D01*
X3473930Y-8264000D01*
X3467580Y-8234370D01*
X3451700Y-8208970D01*
X3423120Y-8192030D01*
X3385030Y-8183570D01*
X3362800Y-8166640D01*
X3353270Y-8137000D01*
X3359630Y-8107370D01*
X3375500Y-8086210D01*
X3397720Y-8073500D01*
X3419950D01*
X3442180Y-8081960D01*
X3461230Y-8103130D01*
G01X3623150Y-8073500D02*
X3699340D01*
G01X3661250D02*
Y-8327500D01*
G01X3623150D02*
X3699340D01*
G01X3854920Y-8073500D02*
X3975580D01*
X3854920Y-8327500D01*
X3975580D01*
G01X4232750D02*
X4105750D01*
Y-8073500D01*
X4232750D01*
G01X4181950Y-8196260D02*
X4105750D01*
G01X3908900Y15993000D02*
Y16247000D01*
X3972400D01*
X3997800Y16234290D01*
X4016850Y16217370D01*
X4032730Y16191970D01*
X4045430Y16162330D01*
X4048600Y16120000D01*
X4045430Y16077660D01*
X4032730Y16048030D01*
X4016850Y16022630D01*
X3997800Y16005700D01*
X3972400Y15993000D01*
X3908900D01*
G01X4296250D02*
X4169250D01*
Y16247000D01*
X4296250D01*
G01X4245450Y16124240D02*
X4169250D01*
G01X4420070Y16026860D02*
X4445480Y16005700D01*
X4474050Y15993000D01*
X4499450D01*
X4524850Y16005700D01*
X4543900Y16026860D01*
X4553430Y16056500D01*
X4547080Y16086130D01*
X4531200Y16111530D01*
X4502620Y16128470D01*
X4464530Y16136930D01*
X4442300Y16153860D01*
X4432770Y16183500D01*
X4439130Y16213130D01*
X4455000Y16234290D01*
X4477220Y16247000D01*
X4499450D01*
X4521680Y16238540D01*
X4540730Y16217370D01*
G01X4810600Y16225830D02*
X4791550Y16238540D01*
X4769330Y16247000D01*
X4743930D01*
X4715350Y16234290D01*
X4693130Y16213130D01*
X4677250Y16187730D01*
X4664550Y16145400D01*
X4661370Y16107300D01*
X4667730Y16069200D01*
X4677250Y16043800D01*
X4696300Y16018390D01*
X4718530Y16001460D01*
X4740750Y15993000D01*
X4762970D01*
X4785200Y16001460D01*
X4804250Y16014160D01*
X4820130Y16031090D01*
G01X4931250Y15993000D02*
Y16247000D01*
X5010620D01*
X5036020Y16234290D01*
X5051900Y16217370D01*
X5058250Y16183500D01*
X5051900Y16149630D01*
X5032850Y16128470D01*
X5010620Y16115760D01*
X4931250D01*
G01X5010620D02*
X5058250Y15993000D01*
G01X5210650Y16247000D02*
X5286840D01*
G01X5248750D02*
Y15993000D01*
G01X5210650D02*
X5286840D01*
G01X5439250D02*
Y16247000D01*
X5515450D01*
X5540850Y16234290D01*
X5559900Y16204670D01*
X5566250Y16170800D01*
X5559900Y16136930D01*
X5544020Y16111530D01*
X5515450Y16098830D01*
X5439250D01*
G01X5756750Y16247000D02*
Y15993000D01*
G01X5683730Y16247000D02*
X5829770D01*
G01X5972650D02*
X6048840D01*
G01X6010750D02*
Y15993000D01*
G01X5972650D02*
X6048840D01*
G01X6264750D02*
X6239350Y15997230D01*
X6217130Y16014160D01*
X6198070Y16039560D01*
X6185370Y16069200D01*
X6179020Y16103070D01*
Y16136930D01*
X6185370Y16170800D01*
X6198070Y16200440D01*
X6217130Y16225830D01*
X6239350Y16242770D01*
X6264750Y16247000D01*
X6290150Y16242770D01*
X6312370Y16225830D01*
X6331430Y16200440D01*
X6344130Y16170800D01*
X6350480Y16136930D01*
Y16103070D01*
X6344130Y16069200D01*
X6331430Y16039560D01*
X6312370Y16014160D01*
X6290150Y15997230D01*
X6264750Y15993000D01*
G01X6445730D02*
Y16247000D01*
X6591770Y15993000D01*
Y16247000D01*
G01X4743920Y-8327500D02*
Y-8073500D01*
X4864580D01*
G01X4820120Y-8196260D02*
X4743920D01*
G01X4991570Y-8293640D02*
X5016980Y-8314800D01*
X5045550Y-8327500D01*
X5070950D01*
X5096350Y-8314800D01*
X5115400Y-8293640D01*
X5124930Y-8264000D01*
X5118580Y-8234370D01*
X5102700Y-8208970D01*
X5074120Y-8192030D01*
X5036030Y-8183570D01*
X5013800Y-8166640D01*
X5004270Y-8137000D01*
X5010630Y-8107370D01*
X5026500Y-8086210D01*
X5048720Y-8073500D01*
X5070950D01*
X5093180Y-8081960D01*
X5112230Y-8103130D01*
G01X5382100Y-8094670D02*
X5363050Y-8081960D01*
X5340830Y-8073500D01*
X5315430D01*
X5286850Y-8086210D01*
X5264630Y-8107370D01*
X5248750Y-8132770D01*
X5236050Y-8175100D01*
X5232870Y-8213200D01*
X5239230Y-8251300D01*
X5248750Y-8276700D01*
X5267800Y-8302110D01*
X5290030Y-8319040D01*
X5312250Y-8327500D01*
X5334470D01*
X5356700Y-8319040D01*
X5375750Y-8306340D01*
X5391630Y-8289410D01*
G01X5483700Y-8327500D02*
Y-8073500D01*
X5566250Y-8285170D01*
X5648800Y-8073500D01*
Y-8327500D01*
G01X6001230D02*
Y-8073500D01*
X6147270Y-8327500D01*
Y-8073500D01*
G01X6328250Y-8327500D02*
X6302850Y-8323270D01*
X6280630Y-8306340D01*
X6261570Y-8280940D01*
X6248870Y-8251300D01*
X6242520Y-8217430D01*
Y-8183570D01*
X6248870Y-8149700D01*
X6261570Y-8120060D01*
X6280630Y-8094670D01*
X6302850Y-8077730D01*
X6328250Y-8073500D01*
X6353650Y-8077730D01*
X6375870Y-8094670D01*
X6394930Y-8120060D01*
X6407630Y-8149700D01*
X6413980Y-8183570D01*
Y-8217430D01*
X6407630Y-8251300D01*
X6394930Y-8280940D01*
X6375870Y-8306340D01*
X6353650Y-8323270D01*
X6328250Y-8327500D01*
G01X4455000Y-8962500D02*
Y-7946500D01*
G01X5471000Y-8962500D02*
Y-9724500D01*
G01X5491750Y-7600000D02*
Y-7346000D01*
X5567950D01*
X5593350Y-7358710D01*
X5612400Y-7388330D01*
X5618750Y-7422200D01*
X5612400Y-7456070D01*
X5596520Y-7481470D01*
X5567950Y-7494170D01*
X5491750D01*
G01X5745750Y-7600000D02*
Y-7346000D01*
X5825120D01*
X5850520Y-7358710D01*
X5866400Y-7375630D01*
X5872750Y-7409500D01*
X5866400Y-7443370D01*
X5847350Y-7464530D01*
X5825120Y-7477240D01*
X5745750D01*
G01X5825120D02*
X5872750Y-7600000D01*
G01X6126750D02*
X5999750D01*
Y-7346000D01*
X6126750D01*
G01X6075950Y-7468760D02*
X5999750D01*
G01X6250570Y-7566140D02*
X6275980Y-7587300D01*
X6304550Y-7600000D01*
X6329950D01*
X6355350Y-7587300D01*
X6374400Y-7566140D01*
X6383930Y-7536500D01*
X6377580Y-7506870D01*
X6361700Y-7481470D01*
X6333120Y-7464530D01*
X6295030Y-7456070D01*
X6272800Y-7439140D01*
X6263270Y-7409500D01*
X6269630Y-7379870D01*
X6285500Y-7358710D01*
X6307720Y-7346000D01*
X6329950D01*
X6352180Y-7354460D01*
X6371230Y-7375630D01*
G01X6504570Y-7566140D02*
X6529980Y-7587300D01*
X6558550Y-7600000D01*
X6583950D01*
X6609350Y-7587300D01*
X6628400Y-7566140D01*
X6637930Y-7536500D01*
X6631580Y-7506870D01*
X6615700Y-7481470D01*
X6587120Y-7464530D01*
X6549030Y-7456070D01*
X6526800Y-7439140D01*
X6517270Y-7409500D01*
X6523630Y-7379870D01*
X6539500Y-7358710D01*
X6561720Y-7346000D01*
X6583950D01*
X6606180Y-7354460D01*
X6625230Y-7375630D01*
G01X6755400Y-7346000D02*
Y-7528030D01*
X6768100Y-7566140D01*
X6793500Y-7591540D01*
X6825250Y-7600000D01*
X6857000Y-7591540D01*
X6882400Y-7566140D01*
X6895100Y-7528030D01*
Y-7346000D01*
G01X7015750Y-7600000D02*
Y-7346000D01*
X7095120D01*
X7120520Y-7358710D01*
X7136400Y-7375630D01*
X7142750Y-7409500D01*
X7136400Y-7443370D01*
X7117350Y-7464530D01*
X7095120Y-7477240D01*
X7015750D01*
G01X7095120D02*
X7142750Y-7600000D01*
G01X7396750D02*
X7269750D01*
Y-7346000D01*
X7396750D01*
G01X7345950Y-7468760D02*
X7269750D01*
G01X7777750Y-7600000D02*
Y-7346000D01*
X7857120D01*
X7882520Y-7358710D01*
X7898400Y-7375630D01*
X7904750Y-7409500D01*
X7898400Y-7443370D01*
X7879350Y-7464530D01*
X7857120Y-7477240D01*
X7777750D01*
G01X7857120D02*
X7904750Y-7600000D01*
G01X8158750D02*
X8031750D01*
Y-7346000D01*
X8158750D01*
G01X8107950Y-7468760D02*
X8031750D01*
G01X8269870Y-7600000D02*
X8349250Y-7346000D01*
X8428630Y-7600000D01*
G01X8400050Y-7511100D02*
X8298450D01*
G01X8533400Y-7600000D02*
Y-7346000D01*
X8596900D01*
X8622300Y-7358710D01*
X8641350Y-7375630D01*
X8657230Y-7401030D01*
X8669930Y-7430670D01*
X8673100Y-7473000D01*
X8669930Y-7515340D01*
X8657230Y-7544970D01*
X8641350Y-7570370D01*
X8622300Y-7587300D01*
X8596900Y-7600000D01*
X8533400D01*
G01X8920750D02*
X8793750D01*
Y-7346000D01*
X8920750D01*
G01X8869950Y-7468760D02*
X8793750D01*
G01X9047750Y-7600000D02*
Y-7346000D01*
X9127120D01*
X9152520Y-7358710D01*
X9168400Y-7375630D01*
X9174750Y-7409500D01*
X9168400Y-7443370D01*
X9149350Y-7464530D01*
X9127120Y-7477240D01*
X9047750D01*
G01X9127120D02*
X9174750Y-7600000D01*
G01X5504920Y-7060000D02*
Y-6806000D01*
X5625580D01*
G01X5581120Y-6928760D02*
X5504920D01*
G01X5755750Y-7060000D02*
Y-6806000D01*
X5835120D01*
X5860520Y-6818710D01*
X5876400Y-6835630D01*
X5882750Y-6869500D01*
X5876400Y-6903370D01*
X5857350Y-6924530D01*
X5835120Y-6937240D01*
X5755750D01*
G01X5835120D02*
X5882750Y-7060000D01*
G01X6092300Y-6933000D02*
X6155800D01*
Y-7009200D01*
X6136750Y-7034610D01*
X6114520Y-7051540D01*
X6082780Y-7060000D01*
X6051030Y-7051540D01*
X6028800Y-7034610D01*
X6009750Y-7009200D01*
X5997050Y-6979570D01*
X5990700Y-6945700D01*
Y-6916070D01*
X5997050Y-6890670D01*
X6009750Y-6861030D01*
X6028800Y-6835630D01*
X6047850Y-6818710D01*
X6073250Y-6806000D01*
X6095470D01*
X6120870Y-6814460D01*
X6139930Y-6831400D01*
G01X6285980Y-6975340D02*
X6368520D01*
G01X6574900Y-7060000D02*
X6581250Y-7004970D01*
X6590780Y-6958410D01*
X6603470Y-6916070D01*
X6619350Y-6869500D01*
X6644750Y-6806000D01*
X6517750D01*
G01X6835250D02*
X6809850Y-6814460D01*
X6790800Y-6835630D01*
X6778100Y-6861030D01*
X6768570Y-6894900D01*
X6765400Y-6933000D01*
X6768570Y-6971100D01*
X6778100Y-7004970D01*
X6790800Y-7030370D01*
X6809850Y-7051540D01*
X6835250Y-7060000D01*
X6860650Y-7051540D01*
X6879700Y-7030370D01*
X6892400Y-7004970D01*
X6901930Y-6971100D01*
X6905100Y-6933000D01*
X6901930Y-6894900D01*
X6892400Y-6861030D01*
X6879700Y-6835630D01*
X6860650Y-6814460D01*
X6835250Y-6806000D01*
G01X7089250D02*
X7063850Y-6814460D01*
X7044800Y-6835630D01*
X7032100Y-6861030D01*
X7022570Y-6894900D01*
X7019400Y-6933000D01*
X7022570Y-6971100D01*
X7032100Y-7004970D01*
X7044800Y-7030370D01*
X7063850Y-7051540D01*
X7089250Y-7060000D01*
X7114650Y-7051540D01*
X7133700Y-7030370D01*
X7146400Y-7004970D01*
X7155930Y-6971100D01*
X7159100Y-6933000D01*
X7155930Y-6894900D01*
X7146400Y-6861030D01*
X7133700Y-6835630D01*
X7114650Y-6814460D01*
X7089250Y-6806000D01*
G01X7286100Y-7068460D02*
X7400400Y-6806000D01*
G01X7590900Y-7060000D02*
X7597250Y-7004970D01*
X7606780Y-6958410D01*
X7619470Y-6916070D01*
X7635350Y-6869500D01*
X7660750Y-6806000D01*
X7533750D01*
G01X7851250D02*
X7825850Y-6814460D01*
X7806800Y-6835630D01*
X7794100Y-6861030D01*
X7784570Y-6894900D01*
X7781400Y-6933000D01*
X7784570Y-6971100D01*
X7794100Y-7004970D01*
X7806800Y-7030370D01*
X7825850Y-7051540D01*
X7851250Y-7060000D01*
X7876650Y-7051540D01*
X7895700Y-7030370D01*
X7908400Y-7004970D01*
X7917930Y-6971100D01*
X7921100Y-6933000D01*
X7917930Y-6894900D01*
X7908400Y-6861030D01*
X7895700Y-6835630D01*
X7876650Y-6814460D01*
X7851250Y-6806000D01*
G01X8044920Y-6848330D02*
X8063980Y-6822940D01*
X8086200Y-6810230D01*
X8111600Y-6806000D01*
X8143350Y-6814460D01*
X8165580Y-6835630D01*
X8171930Y-6861030D01*
X8168750Y-6886440D01*
X8156050Y-6907600D01*
X8092550Y-6949930D01*
X8063980Y-6979570D01*
X8044920Y-7021910D01*
X8038570Y-7060000D01*
X8171930D01*
G01X5492230Y-5910000D02*
Y-5656000D01*
X5638270Y-5910000D01*
Y-5656000D01*
G01X5819250Y-5910000D02*
Y-5795700D01*
X5755750Y-5656000D01*
G01X5882750D02*
X5819250Y-5795700D01*
G01X6003400Y-5656000D02*
Y-5838030D01*
X6016100Y-5876140D01*
X6041500Y-5901540D01*
X6073250Y-5910000D01*
X6105000Y-5901540D01*
X6130400Y-5876140D01*
X6143100Y-5838030D01*
Y-5656000D01*
G01X6508230Y-5910000D02*
Y-5656000D01*
X6654270Y-5910000D01*
Y-5656000D01*
G01X6755870Y-5910000D02*
X6835250Y-5656000D01*
X6914630Y-5910000D01*
G01X6886050Y-5821100D02*
X6784450D01*
G01X7016230Y-5910000D02*
Y-5656000D01*
X7162270Y-5910000D01*
Y-5656000D01*
G01X7343250Y-5910000D02*
X7317850Y-5905770D01*
X7295630Y-5888840D01*
X7276570Y-5863440D01*
X7263870Y-5833800D01*
X7257520Y-5799930D01*
Y-5766070D01*
X7263870Y-5732200D01*
X7276570Y-5702560D01*
X7295630Y-5677170D01*
X7317850Y-5660230D01*
X7343250Y-5656000D01*
X7368650Y-5660230D01*
X7390870Y-5677170D01*
X7409930Y-5702560D01*
X7422630Y-5732200D01*
X7428980Y-5766070D01*
Y-5799930D01*
X7422630Y-5833800D01*
X7409930Y-5863440D01*
X7390870Y-5888840D01*
X7368650Y-5905770D01*
X7343250Y-5910000D01*
G01X7914750D02*
X7787750D01*
Y-5656000D01*
X7914750D01*
G01X7863950Y-5778760D02*
X7787750D01*
G01X8041750Y-5656000D02*
Y-5910000D01*
X8168750D01*
G01X8422750D02*
X8295750D01*
Y-5656000D01*
X8422750D01*
G01X8371950Y-5778760D02*
X8295750D01*
G01X8683100Y-5677170D02*
X8664050Y-5664460D01*
X8641830Y-5656000D01*
X8616430D01*
X8587850Y-5668710D01*
X8565630Y-5689870D01*
X8549750Y-5715270D01*
X8537050Y-5757600D01*
X8533870Y-5795700D01*
X8540230Y-5833800D01*
X8549750Y-5859200D01*
X8568800Y-5884610D01*
X8591030Y-5901540D01*
X8613250Y-5910000D01*
X8635470D01*
X8657700Y-5901540D01*
X8676750Y-5888840D01*
X8692630Y-5871910D01*
G01X8867250Y-5656000D02*
Y-5910000D01*
G01X8794230Y-5656000D02*
X8940270D01*
G01X9057750Y-5910000D02*
Y-5656000D01*
X9137120D01*
X9162520Y-5668710D01*
X9178400Y-5685630D01*
X9184750Y-5719500D01*
X9178400Y-5753370D01*
X9159350Y-5774530D01*
X9137120Y-5787240D01*
X9057750D01*
G01X9137120D02*
X9184750Y-5910000D01*
G01X9375250D02*
X9349850Y-5905770D01*
X9327630Y-5888840D01*
X9308570Y-5863440D01*
X9295870Y-5833800D01*
X9289520Y-5799930D01*
Y-5766070D01*
X9295870Y-5732200D01*
X9308570Y-5702560D01*
X9327630Y-5677170D01*
X9349850Y-5660230D01*
X9375250Y-5656000D01*
X9400650Y-5660230D01*
X9422870Y-5677170D01*
X9441930Y-5702560D01*
X9454630Y-5732200D01*
X9460980Y-5766070D01*
Y-5799930D01*
X9454630Y-5833800D01*
X9441930Y-5863440D01*
X9422870Y-5888840D01*
X9400650Y-5905770D01*
X9375250Y-5910000D01*
G01X9556230D02*
Y-5656000D01*
X9702270Y-5910000D01*
Y-5656000D01*
G01X9845150D02*
X9921340D01*
G01X9883250D02*
Y-5910000D01*
G01X9845150D02*
X9921340D01*
G01X10207100Y-5677170D02*
X10188050Y-5664460D01*
X10165830Y-5656000D01*
X10140430D01*
X10111850Y-5668710D01*
X10089630Y-5689870D01*
X10073750Y-5715270D01*
X10061050Y-5757600D01*
X10057870Y-5795700D01*
X10064230Y-5833800D01*
X10073750Y-5859200D01*
X10092800Y-5884610D01*
X10115030Y-5901540D01*
X10137250Y-5910000D01*
X10159470D01*
X10181700Y-5901540D01*
X10200750Y-5888840D01*
X10216630Y-5871910D01*
G01X10324570Y-5876140D02*
X10349980Y-5897300D01*
X10378550Y-5910000D01*
X10403950D01*
X10429350Y-5897300D01*
X10448400Y-5876140D01*
X10457930Y-5846500D01*
X10451580Y-5816870D01*
X10435700Y-5791470D01*
X10407120Y-5774530D01*
X10369030Y-5766070D01*
X10346800Y-5749140D01*
X10337270Y-5719500D01*
X10343630Y-5689870D01*
X10359500Y-5668710D01*
X10381720Y-5656000D01*
X10403950D01*
X10426180Y-5664460D01*
X10445230Y-5685630D01*
G01X10835750Y-5656000D02*
Y-5910000D01*
X10962750D01*
G01X11073870D02*
X11153250Y-5656000D01*
X11232630Y-5910000D01*
G01X11204050Y-5821100D02*
X11102450D01*
G01X11432650Y-5774530D02*
X11445350Y-5761830D01*
X11454870Y-5740670D01*
X11461230Y-5711030D01*
X11454870Y-5685630D01*
X11442180Y-5668710D01*
X11419950Y-5656000D01*
X11334230D01*
Y-5910000D01*
X11439000D01*
X11461230Y-5893070D01*
X11473930Y-5867670D01*
X11480270Y-5838030D01*
X11473930Y-5808410D01*
X11454870Y-5783000D01*
X11432650Y-5774530D01*
X11334230D01*
G01X6582250Y16755000D02*
Y17009000D01*
X6661620D01*
X6687020Y16996290D01*
X6702900Y16979370D01*
X6709250Y16945500D01*
X6702900Y16911630D01*
X6683850Y16890470D01*
X6661620Y16877760D01*
X6582250D01*
G01X6661620D02*
X6709250Y16755000D01*
G01X6963250D02*
X6836250D01*
Y17009000D01*
X6963250D01*
G01X6912450Y16886240D02*
X6836250D01*
G01X7074370Y17009000D02*
X7153750Y16755000D01*
X7233130Y17009000D01*
G01X7369650D02*
X7445840D01*
G01X7407750D02*
Y16755000D01*
G01X7369650D02*
X7445840D01*
G01X7595070Y16788860D02*
X7620480Y16767700D01*
X7649050Y16755000D01*
X7674450D01*
X7699850Y16767700D01*
X7718900Y16788860D01*
X7728430Y16818500D01*
X7722080Y16848130D01*
X7706200Y16873530D01*
X7677620Y16890470D01*
X7639530Y16898930D01*
X7617300Y16915860D01*
X7607770Y16945500D01*
X7614130Y16975130D01*
X7630000Y16996290D01*
X7652220Y17009000D01*
X7674450D01*
X7696680Y17000540D01*
X7715730Y16979370D01*
G01X7877650Y17009000D02*
X7953840D01*
G01X7915750D02*
Y16755000D01*
G01X7877650D02*
X7953840D01*
G01X8169750D02*
X8144350Y16759230D01*
X8122130Y16776160D01*
X8103070Y16801560D01*
X8090370Y16831200D01*
X8084020Y16865070D01*
Y16898930D01*
X8090370Y16932800D01*
X8103070Y16962440D01*
X8122130Y16987830D01*
X8144350Y17004770D01*
X8169750Y17009000D01*
X8195150Y17004770D01*
X8217370Y16987830D01*
X8236430Y16962440D01*
X8249130Y16932800D01*
X8255480Y16898930D01*
Y16865070D01*
X8249130Y16831200D01*
X8236430Y16801560D01*
X8217370Y16776160D01*
X8195150Y16759230D01*
X8169750Y16755000D01*
G01X8350730D02*
Y17009000D01*
X8496770Y16755000D01*
Y17009000D01*
G01X8611070Y16788860D02*
X8636480Y16767700D01*
X8665050Y16755000D01*
X8690450D01*
X8715850Y16767700D01*
X8734900Y16788860D01*
X8744430Y16818500D01*
X8738080Y16848130D01*
X8722200Y16873530D01*
X8693620Y16890470D01*
X8655530Y16898930D01*
X8633300Y16915860D01*
X8623770Y16945500D01*
X8630130Y16975130D01*
X8646000Y16996290D01*
X8668220Y17009000D01*
X8690450D01*
X8712680Y17000540D01*
X8731730Y16979370D01*
G01X7782400Y-8327500D02*
Y-8073500D01*
X7845900D01*
X7871300Y-8086210D01*
X7890350Y-8103130D01*
X7906230Y-8128530D01*
X7918930Y-8158170D01*
X7922100Y-8200500D01*
X7918930Y-8242840D01*
X7906230Y-8272470D01*
X7890350Y-8297870D01*
X7871300Y-8314800D01*
X7845900Y-8327500D01*
X7782400D01*
G01X8011000Y-8073500D02*
X8055450Y-8327500D01*
X8106250Y-8073500D01*
X8157050Y-8327500D01*
X8201500Y-8073500D01*
G01X8379300Y-8200500D02*
X8442800D01*
Y-8276700D01*
X8423750Y-8302110D01*
X8401520Y-8319040D01*
X8369780Y-8327500D01*
X8338030Y-8319040D01*
X8315800Y-8302110D01*
X8296750Y-8276700D01*
X8284050Y-8247070D01*
X8277700Y-8213200D01*
Y-8183570D01*
X8284050Y-8158170D01*
X8296750Y-8128530D01*
X8315800Y-8103130D01*
X8334850Y-8086210D01*
X8360250Y-8073500D01*
X8382470D01*
X8407870Y-8081960D01*
X8426930Y-8098900D01*
G01X8795230Y-8327500D02*
Y-8073500D01*
X8941270Y-8327500D01*
Y-8073500D01*
G01X9122250Y-8327500D02*
X9096850Y-8323270D01*
X9074630Y-8306340D01*
X9055570Y-8280940D01*
X9042870Y-8251300D01*
X9036520Y-8217430D01*
Y-8183570D01*
X9042870Y-8149700D01*
X9055570Y-8120060D01*
X9074630Y-8094670D01*
X9096850Y-8077730D01*
X9122250Y-8073500D01*
X9147650Y-8077730D01*
X9169870Y-8094670D01*
X9188930Y-8120060D01*
X9201630Y-8149700D01*
X9207980Y-8183570D01*
Y-8217430D01*
X9201630Y-8251300D01*
X9188930Y-8280940D01*
X9169870Y-8306340D01*
X9147650Y-8323270D01*
X9122250Y-8327500D01*
G01X7503000Y-8962500D02*
Y-7946500D01*
G01X8963500Y14977000D02*
Y14215000D01*
G01Y14723000D02*
Y15739000D01*
G01D02*
Y16501000D01*
G01X9817570Y-9309640D02*
X9842980Y-9330800D01*
X9871550Y-9343500D01*
X9896950D01*
X9922350Y-9330800D01*
X9941400Y-9309640D01*
X9950930Y-9280000D01*
X9944580Y-9250370D01*
X9928700Y-9224970D01*
X9900120Y-9208030D01*
X9862030Y-9199570D01*
X9839800Y-9182640D01*
X9830270Y-9153000D01*
X9836630Y-9123370D01*
X9852500Y-9102210D01*
X9874720Y-9089500D01*
X9896950D01*
X9919180Y-9097960D01*
X9938230Y-9119130D01*
G01X10071570Y-9343500D02*
Y-9089500D01*
G01X10204930D02*
Y-9343500D01*
G01Y-9216500D02*
X10071570D01*
G01X10455750Y-9343500D02*
X10328750D01*
Y-9089500D01*
X10455750D01*
G01X10404950Y-9212260D02*
X10328750D01*
G01X10709750Y-9343500D02*
X10582750D01*
Y-9089500D01*
X10709750D01*
G01X10658950Y-9212260D02*
X10582750D01*
G01X10900250Y-9089500D02*
Y-9343500D01*
G01X10827230Y-9089500D02*
X10973270D01*
G01X9535000Y-9724500D02*
Y-8962500D01*
X13853000D01*
G01X9623900Y15993000D02*
Y16247000D01*
X9687400D01*
X9712800Y16234290D01*
X9731850Y16217370D01*
X9747730Y16191970D01*
X9760430Y16162330D01*
X9763600Y16120000D01*
X9760430Y16077660D01*
X9747730Y16048030D01*
X9731850Y16022630D01*
X9712800Y16005700D01*
X9687400Y15993000D01*
X9623900D01*
G01X9868370D02*
X9947750Y16247000D01*
X10027130Y15993000D01*
G01X9998550Y16081900D02*
X9896950D01*
G01X10201750Y16247000D02*
Y15993000D01*
G01X10128730Y16247000D02*
X10274770D01*
G01X10519250Y15993000D02*
X10392250D01*
Y16247000D01*
X10519250D01*
G01X10468450Y16124240D02*
X10392250D01*
G01X11249500Y14977000D02*
Y14215000D01*
G01Y14977000D02*
Y15739000D01*
G01X11519370Y15993000D02*
X11598750Y16247000D01*
X11678130Y15993000D01*
G01X11649550Y16081900D02*
X11547950D01*
G01X11789250Y15993000D02*
Y16247000D01*
X11865450D01*
X11890850Y16234290D01*
X11909900Y16204670D01*
X11916250Y16170800D01*
X11909900Y16136930D01*
X11894020Y16111530D01*
X11865450Y16098830D01*
X11789250D01*
G01X12043250Y15993000D02*
Y16247000D01*
X12119450D01*
X12144850Y16234290D01*
X12163900Y16204670D01*
X12170250Y16170800D01*
X12163900Y16136930D01*
X12148020Y16111530D01*
X12119450Y16098830D01*
X12043250D01*
G01X12297250Y15993000D02*
Y16247000D01*
X12376620D01*
X12402020Y16234290D01*
X12417900Y16217370D01*
X12424250Y16183500D01*
X12417900Y16149630D01*
X12398850Y16128470D01*
X12376620Y16115760D01*
X12297250D01*
G01X12376620D02*
X12424250Y15993000D01*
G01X12614750D02*
X12589350Y15997230D01*
X12567130Y16014160D01*
X12548070Y16039560D01*
X12535370Y16069200D01*
X12529020Y16103070D01*
Y16136930D01*
X12535370Y16170800D01*
X12548070Y16200440D01*
X12567130Y16225830D01*
X12589350Y16242770D01*
X12614750Y16247000D01*
X12640150Y16242770D01*
X12662370Y16225830D01*
X12681430Y16200440D01*
X12694130Y16170800D01*
X12700480Y16136930D01*
Y16103070D01*
X12694130Y16069200D01*
X12681430Y16039560D01*
X12662370Y16014160D01*
X12640150Y15997230D01*
X12614750Y15993000D01*
G01X12789370Y16247000D02*
X12868750Y15993000D01*
X12948130Y16247000D01*
G01X13186250Y15993000D02*
X13059250D01*
Y16247000D01*
X13186250D01*
G01X13135450Y16124240D02*
X13059250D01*
G01X13306900Y15993000D02*
Y16247000D01*
X13370400D01*
X13395800Y16234290D01*
X13414850Y16217370D01*
X13430730Y16191970D01*
X13443430Y16162330D01*
X13446600Y16120000D01*
X13443430Y16077660D01*
X13430730Y16048030D01*
X13414850Y16022630D01*
X13395800Y16005700D01*
X13370400Y15993000D01*
X13306900D01*
G01X11249500Y15739000D02*
Y16501000D01*
G01X13789500Y17136000D02*
Y14088000D01*
M02*
